<?xml version="1.0" encoding="UTF-8" standalone="no"?>
<!-- Created with Inkscape (http://www.inkscape.org/) -->

<svg
   width="57.075195mm"
   height="5.8262477mm"
   viewBox="0 0 202.23495 20.644185"
   id="svg2"
   version="1.1"
   inkscape:version="1.2.2 (b0a84865, 2022-12-01)"
   sodipodi:docname="Gokulamlogo1.svg"
   inkscape:export-filename="/home/prabha/github-priv/gokulambiotech.github.io/images/Gokulamlogo.png"
   inkscape:export-xdpi="90"
   inkscape:export-ydpi="90"
   style="enable-background:new"
   xmlns:inkscape="http://www.inkscape.org/namespaces/inkscape"
   xmlns:sodipodi="http://sodipodi.sourceforge.net/DTD/sodipodi-0.dtd"
   xmlns:xlink="http://www.w3.org/1999/xlink"
   xmlns="http://www.w3.org/2000/svg"
   xmlns:svg="http://www.w3.org/2000/svg"
   xmlns:rdf="http://www.w3.org/1999/02/22-rdf-syntax-ns#"
   xmlns:cc="http://creativecommons.org/ns#"
   xmlns:dc="http://purl.org/dc/elements/1.1/">
  <defs
     id="defs4">
    <linearGradient
       inkscape:collect="always"
       id="linearGradient4593">
      <stop
         style="stop-color:#000000;stop-opacity:1;"
         offset="0"
         id="stop4589" />
      <stop
         style="stop-color:#000000;stop-opacity:0;"
         offset="1"
         id="stop4591" />
    </linearGradient>
    <linearGradient
       inkscape:collect="always"
       xlink:href="#linearGradient4593"
       id="linearGradient4595"
       x1="149.99553"
       y1="72.21582"
       x2="488.12445"
       y2="72.21582"
       gradientUnits="userSpaceOnUse" />
  </defs>
  <sodipodi:namedview
     id="base"
     pagecolor="#ffffff"
     bordercolor="#666666"
     borderopacity="1.0"
     inkscape:pageopacity="0.0"
     inkscape:pageshadow="2"
     inkscape:zoom="2.8"
     inkscape:cx="108.75"
     inkscape:cy="28.928571"
     inkscape:document-units="px"
     inkscape:current-layer="layer3"
     showgrid="false"
     inkscape:window-width="1309"
     inkscape:window-height="456"
     inkscape:window-x="0"
     inkscape:window-y="25"
     inkscape:window-maximized="0"
     inkscape:snap-grids="false"
     fit-margin-right="0.5"
     fit-margin-top="0"
     fit-margin-left="0"
     fit-margin-bottom="0"
     inkscape:snap-text-baseline="true"
     inkscape:showpageshadow="2"
     inkscape:pagecheckerboard="0"
     inkscape:deskcolor="#d1d1d1" />
  <metadata
     id="metadata7">
    <rdf:RDF>
      <cc:Work
         rdf:about="">
        <dc:format>image/svg+xml</dc:format>
        <dc:type
           rdf:resource="http://purl.org/dc/dcmitype/StillImage" />
      </cc:Work>
    </rdf:RDF>
  </metadata>
  <g
     inkscape:groupmode="layer"
     id="layer2"
     inkscape:label="Background"
     style="display:inline;opacity:1"
     transform="translate(-6.5660001,-4.0406104)" />
  <g
     inkscape:label="Logo"
     inkscape:groupmode="layer"
     id="layer1"
     transform="translate(-36.13308,-37.854932)"
     style="display:inline">
    <g
       transform="matrix(0.61676145,-0.39679317,0.32034378,0.48295122,-251.49721,68.53355)"
       id="layer1-6"
       inkscape:label="Layer 1">
      <g
         id="g4"
         style="fill:#affc00;fill-rule:nonzero;stroke:none;stroke-width:0.642259;stroke-linecap:butt;stroke-linejoin:miter;stroke-dasharray:none"
         transform="matrix(1.2500001,0,0,1.2500001,340.69307,239.84947)">
        <path
           id="path6"
           d="M 8.56121,19.5456 C 6.04637,16.9738 3.02319,16.2163 1.74762,11.9456 0.604989,8.13958 1.6381,4.0932 0,0 1.52916,4.59359 5.34709,2.94009 8.28126,5.09746 11.7343,7.6399 11.3478,12.8191 10.4055,17.2024 10.7205,12.5368 7.818,8.50159 4.32863,6.76423 c 3.40679,3.49917 5.18779,8.74127 4.6607,13.83247 0,0 -0.42812,-1.0511 -0.42812,-1.0511 z"
           inkscape:connector-curvature="0" />
      </g>
      <g
         id="g8"
         style="fill:#affc00;fill-rule:nonzero;stroke:none;stroke-width:0.642259;stroke-linecap:butt;stroke-linejoin:miter;stroke-dasharray:none"
         transform="matrix(1.2500001,0,0,1.2500001,354.22308,234.40947)">
        <path
           id="path10"
           d="M 2.3977,21.4996 C 1.88407,17.5937 0,14.6739 1.35346,10.436 2.55817,6.6608 5.54622,4.38253 6.53013,0 5.19189,4.67954 8.99401,6.37986 10.0511,10.2977 11.2927,14.9066 8.17877,18.5435 5.07769,21.1446 7.85431,17.8397 7.8467,12.5228 6.13949,8.4995 6.82355,13.801 5.32601,19.1654 2.15348,22.6283 c 0,0 0.24422,-1.1287 0.24422,-1.1287 z"
           inkscape:connector-curvature="0" />
      </g>
      <path
         id="path14"
         d="m 362.74636,262.33791 c 2.76652,-3.67774 3.65087,-8.16178 8.16046,-9.94037 4.01989,-1.5864 8.22639,0.0708 12.56464,-2.24682 -4.85875,2.14287 -3.23875,7.88485 -5.58575,12.19855 -2.76287,5.07195 -8.17656,4.33995 -12.74034,2.8042 4.87858,0.608 9.18834,-3.59915 11.11222,-8.74624 -3.768,4.9715 -9.30691,7.47161 -14.62326,6.53874 0,0 1.11203,-0.60806 1.11203,-0.60806 z"
         style="fill:#affc00;fill-rule:nonzero;stroke:none;stroke-width:0.642259;stroke-linecap:butt;stroke-linejoin:miter;stroke-dasharray:none"
         inkscape:connector-curvature="0" />
      <g
         id="g16"
         style="fill:#affc00;fill-rule:nonzero;stroke:none;stroke-width:0.642259;stroke-linecap:butt;stroke-linejoin:miter;stroke-dasharray:none"
         transform="matrix(1.2500001,0,0,1.2500001,362.19433,265.60072)">
        <path
           id="path18"
           d="M 0.924175,5.26938 C 3.3822,7.92224 4.39715,11.4025 8.11025,12.3705 11.4151,13.2349 14.6503,11.4983 18.2615,12.9142 14.2486,11.6891 15.1382,6.96411 12.9695,3.76264 10.416,0 6.16175,1.11747 2.64016,2.79053 6.47801,1.82192 10.2005,4.74454 12.0881,8.65045 8.7451,5.06881 4.16347,3.62707 0,4.89409 c 0,0 0.924175,0.37529 0.924175,0.37529 z"
           inkscape:connector-curvature="0" />
      </g>
    </g>
  </g>
  <g
     inkscape:groupmode="layer"
     id="layer3"
     inkscape:label="Text"
     transform="translate(-6.5660052,-4.0406106)">
    <text
       xml:space="preserve"
       style="font-style:normal;font-weight:normal;font-size:11.6501px;line-height:0%;font-family:sans-serif;letter-spacing:0px;word-spacing:0px;opacity:1;fill:#008000;fill-opacity:1;stroke:#000000;stroke-width:0.097084;stroke-linecap:butt;stroke-linejoin:round;stroke-miterlimit:0;stroke-dasharray:none;stroke-opacity:1"
       x="52.74007"
       y="21.112684"
       id="text4246"
       transform="scale(0.92799508,1.0775919)"><tspan
         sodipodi:role="line"
         id="tspan4248"
         x="52.74007"
         y="21.112684"
         style="font-style:normal;font-variant:normal;font-weight:600;font-stretch:normal;font-size:18.2033px;line-height:125%;font-family:FreeSans;-inkscape-font-specification:'FreeSans, Semi-Bold';text-align:start;writing-mode:lr-tb;text-anchor:start;opacity:0.101;fill:#008000;stroke:#000000;stroke-width:0.097084;stroke-linecap:butt;stroke-linejoin:round;stroke-miterlimit:0;stroke-dasharray:none;stroke-opacity:1">Gokulam Biotech</tspan></text>
  </g>
</svg>
