<?xml version="1.0" encoding="UTF-8" standalone="no"?>
<svg
   xmlns:osb="http://www.openswatchbook.org/uri/2009/osb"
   xmlns:dc="http://purl.org/dc/elements/1.1/"
   xmlns:cc="http://creativecommons.org/ns#"
   xmlns:rdf="http://www.w3.org/1999/02/22-rdf-syntax-ns#"
   xmlns:svg="http://www.w3.org/2000/svg"
   xmlns="http://www.w3.org/2000/svg"
   xmlns:xlink="http://www.w3.org/1999/xlink"
   style="enable-background:new"
   version="1.1"
   id="svg2"
   viewBox="0 0 202.23495 20.644185"
   height="5.8262477mm"
   width="57.075195mm">
  <defs
     id="defs4">
    <linearGradient
       osb:paint="solid"
       id="linearGradient4149">
      <stop
         id="stop4151"
         offset="0"
         style="stop-color:#ffffff;stop-opacity:1;" />
    </linearGradient>
    <linearGradient
       id="linearGradient4593">
      <stop
         id="stop4589"
         offset="0"
         style="stop-color:#000000;stop-opacity:1;" />
      <stop
         id="stop4591"
         offset="1"
         style="stop-color:#000000;stop-opacity:0;" />
    </linearGradient>
    <linearGradient
       gradientUnits="userSpaceOnUse"
       y2="72.21582"
       x2="488.12445"
       y1="72.21582"
       x1="149.99553"
       id="linearGradient4595"
       xlink:href="#linearGradient4593" />
    <meshgradient
       y="56.737305"
       x="150.49553"
       gradientUnits="userSpaceOnUse"
       id="meshgradient4617">
      <meshrow
         id="meshrow4619">
        <meshpatch
           id="meshpatch4621">
          <stop
             id="stop4623"
             style="stop-color:#ffffff;stop-opacity:1"
             path="c 111.725,0  223.451,0  335.176,0" />
          <stop
             id="stop4625"
             style="stop-color:#1a1a1a;stop-opacity:1"
             path="c 0,10.319  0,20.638  0,30.957" />
          <stop
             id="stop4627"
             style="stop-color:#ffffff;stop-opacity:1"
             path="c -111.725,0  -223.451,0  -335.176,0" />
          <stop
             id="stop4629"
             style="stop-color:#1a1a1a;stop-opacity:1"
             path="c 0,-10.319  0,-20.638  0,-30.957" />
        </meshpatch>
      </meshrow>
    </meshgradient>
    <linearGradient
       gradientUnits="userSpaceOnUse"
       y2="16.683837"
       x2="207.0293"
       y1="16.683837"
       x1="54.238071"
       id="linearGradient4153"
       xlink:href="#linearGradient4149" />
  </defs>
  <metadata
     id="metadata7">
    <rdf:RDF>
      <cc:Work
         rdf:about="">
        <dc:format>image/svg+xml</dc:format>
        <dc:type
           rdf:resource="http://purl.org/dc/dcmitype/StillImage" />
        <dc:title></dc:title>
      </cc:Work>
    </rdf:RDF>
  </metadata>
  <g
     transform="translate(-6.5660001,-4.0406104)"
     style="display:inline;opacity:1"
     id="layer2" />
  <g
     style="display:inline"
     transform="translate(-36.13308,-37.854932)"
     id="layer1">
    <g
       id="layer1-6"
       transform="matrix(0.62182777,-0.41009559,0.32297521,0.49914207,-253.18478,70.254138)">
      <g
         transform="matrix(1.2500001,0,0,1.2500001,340.69307,239.84947)"
         style="fill:#affc00;fill-rule:nonzero;stroke:none;stroke-width:0.642259;stroke-linecap:butt;stroke-linejoin:miter;stroke-dasharray:none"
         id="g4">
        <path
           d="M 8.56121,19.5456 C 6.04637,16.9738 3.02319,16.2163 1.74762,11.9456 0.604989,8.13958 1.6381,4.0932 0,0 1.52916,4.59359 5.34709,2.94009 8.28126,5.09746 11.7343,7.6399 11.3478,12.8191 10.4055,17.2024 10.7205,12.5368 7.818,8.50159 4.32863,6.76423 c 3.40679,3.49917 5.18779,8.74127 4.6607,13.83247 0,0 -0.42812,-1.0511 -0.42812,-1.0511 z"
           id="path6" />
      </g>
      <g
         transform="matrix(1.2500001,0,0,1.2500001,354.22308,234.40947)"
         style="fill:#affc00;fill-rule:nonzero;stroke:none;stroke-width:0.642259;stroke-linecap:butt;stroke-linejoin:miter;stroke-dasharray:none"
         id="g8">
        <path
           d="M 2.3977,21.4996 C 1.88407,17.5937 0,14.6739 1.35346,10.436 2.55817,6.6608 5.54622,4.38253 6.53013,0 5.19189,4.67954 8.99401,6.37986 10.0511,10.2977 11.2927,14.9066 8.17877,18.5435 5.07769,21.1446 7.85431,17.8397 7.8467,12.5228 6.13949,8.4995 6.82355,13.801 5.32601,19.1654 2.15348,22.6283 c 0,0 0.24422,-1.1287 0.24422,-1.1287 z"
           id="path10" />
      </g>
      <path
         style="fill:#affc00;fill-rule:nonzero;stroke:none;stroke-width:0.642259;stroke-linecap:butt;stroke-linejoin:miter;stroke-dasharray:none"
         d="m 362.74636,262.33791 c 2.76652,-3.67774 3.65087,-8.16178 8.16046,-9.94037 4.01989,-1.5864 8.22639,0.0708 12.56464,-2.24682 -4.85875,2.14287 -3.23875,7.88485 -5.58575,12.19855 -2.76287,5.07195 -8.17656,4.33995 -12.74034,2.8042 4.87858,0.608 9.18834,-3.59915 11.11222,-8.74624 -3.768,4.9715 -9.30691,7.47161 -14.62326,6.53874 0,0 1.11203,-0.60806 1.11203,-0.60806 z"
         id="path14" />
      <g
         transform="matrix(1.2500001,0,0,1.2500001,362.19433,265.60072)"
         style="fill:#affc00;fill-rule:nonzero;stroke:none;stroke-width:0.642259;stroke-linecap:butt;stroke-linejoin:miter;stroke-dasharray:none"
         id="g16">
        <path
           d="M 0.924175,5.26938 C 3.3822,7.92224 4.39715,11.4025 8.11025,12.3705 11.4151,13.2349 14.6503,11.4983 18.2615,12.9142 14.2486,11.6891 15.1382,6.96411 12.9695,3.76264 10.416,0 6.16175,1.11747 2.64016,2.79053 6.47801,1.82192 10.2005,4.74454 12.0881,8.65045 8.7451,5.06881 4.16347,3.62707 0,4.89409 c 0,0 0.924175,0.37529 0.924175,0.37529 z"
           id="path18" />
      </g>
    </g>
  </g>
  <g
     transform="translate(-6.5660052,-4.0406106)"
     id="layer3">
    <text
       id="text4246"
       y="23.433838"
       x="53.538071"
       style="font-style:normal;font-weight:normal;font-size:40px;line-height:125%;font-family:sans-serif;letter-spacing:0px;word-spacing:0px;opacity:0.98;fill:#ffffff;fill-opacity:1;stroke:#000000;stroke-width:0.10000001;stroke-linecap:butt;stroke-linejoin:round;stroke-miterlimit:0;stroke-dasharray:none;stroke-opacity:1;"
       xml:space="preserve"><tspan
         style="font-style:normal;font-variant:normal;font-weight:600;font-stretch:normal;font-size:18.75000191px;line-height:125%;font-family:FreeSans;-inkscape-font-specification:'FreeSans, Semi-Bold';text-align:start;writing-mode:lr-tb;text-anchor:start;opacity:0.10100002;fill:#ffffff;stroke:#000000;stroke-width:0.10000001;stroke-linecap:butt;stroke-linejoin:round;stroke-miterlimit:0;stroke-dasharray:none;stroke-opacity:1;fill-opacity:1;"
         y="23.433838"
         x="53.538071"
         id="tspan4248">Gokulam Biotech</tspan></text>
  </g>
</svg>
